PathFileType	4	(X/Y/Z)	1H_nor_med_left.trc
DataRate	CameraRate	NumFrames	NumMarkers	Units	OrigDataRate	OrigDataStartFrame	OrigNumFrames
250.00	250.00	18	18	mm	250.00	2866	7640
Frame#	Time	c7	r_should	l_should	clavicle	r_upa	r_elb_l	r_elb_m	r_low	r_wri_l	r_wri_m	r_met	l_upa	l_elb_l	l_elb_m	l_low	l_wri_l	l_wri_m	l_met
	X1	Y1	Z1	X2	Y2	Z2	X3	Y3	Z3	X4	Y4	Z4	X5	Y5	Z5	X6	Y6	Z6	X7	Y7	Z7	X8	Y8	Z8	X9	Y9	Z9	X10	Y10	Z10	X11	Y11	Z11	X12	Y12	Z12	X13	Y13	Z13	X14	Y14	Z14	X15	Y15	Z15	X16	Y16	Z16	X17	Y17	Z17	X18	Y18	Z18
2866	11.46000	1246.49170	1427.01697	153.95750	1276.95837	1349.13745	318.02295	1275.77783	1361.01367	-20.13921	1344.78589	1279.14001	146.01358	1286.08899	1130.15161	362.28442	1287.25757	1038.75476	376.09088	1222.00537	1012.48322	308.88617	1303.37891	904.17896	368.88663	1318.75330	777.96045	354.69250	1247.10352	780.71539	387.15170	1324.02234	714.86108	401.06961	1285.25952	1163.22791	-106.45953	1303.63843	1069.96680	-124.18060	1233.27368	1046.55383	-64.45578	1356.72461	982.53870	-75.03413	1403.51013	916.75250	11.39596	1371.37292	859.46240	-35.50787	1469.40063	860.69183	10.28696
2867	11.46400	1246.66577	1427.01904	153.94194	1277.03320	1349.17737	318.07126	1276.07178	1360.90564	-20.11635	1344.92188	1279.11218	146.12099	1286.12207	1130.18970	362.36353	1287.28345	1038.79395	376.16388	1222.04993	1012.53912	308.96640	1303.41296	904.22314	368.98395	1318.78308	778.00134	354.77634	1247.11353	780.78143	387.24652	1324.05164	714.91681	401.16550	1285.51807	1163.00220	-106.24553	1303.12012	1070.23218	-124.61983	1233.39319	1046.24194	-64.11936	1356.83496	981.37817	-74.68430	1403.10144	914.56342	10.77281	1370.72729	858.18195	-36.13192	1468.81787	858.81067	9.53332
2868	11.46800	1246.84082	1427.01868	153.92982	1277.11841	1349.21790	318.12289	1276.36926	1360.79407	-20.09392	1345.05481	1279.09387	146.22717	1286.14893	1130.22607	362.43869	1287.31494	1038.83887	376.25067	1222.10913	1012.58661	309.04181	1303.44678	904.26538	369.07764	1318.81763	778.03961	354.85849	1247.14246	780.83685	387.34103	1323.97278	715.08466	401.34409	1285.77283	1162.77576	-106.03073	1303.50916	1069.63147	-124.24100	1233.71765	1045.77710	-63.84440	1355.99854	981.43878	-75.50418	1402.88818	910.78021	10.20446	1370.08350	856.95776	-36.79366	1468.23682	856.94470	8.78301
2869	11.47200	1247.01392	1427.01648	153.92807	1277.20667	1349.25562	318.17444	1276.65906	1360.68152	-20.07114	1345.19006	1279.06458	146.33482	1286.16968	1130.25781	362.51801	1287.34717	1038.87756	376.33371	1222.15979	1012.62714	309.11868	1303.47620	904.30334	369.17670	1318.84058	778.08307	354.95673	1247.16943	780.88629	387.42633	1323.73572	715.36005	401.60645	1286.02966	1162.55078	-105.81670	1304.46960	1068.49023	-123.35269	1234.23938	1045.13025	-63.64728	1356.13416	980.08911	-75.57494	1402.60620	908.69958	9.77870	1369.42590	855.73529	-37.46010	1467.63660	855.09015	8.03157
2870	11.47600	1247.18530	1427.01416	153.92625	1277.28931	1349.29346	318.22153	1276.93799	1360.57092	-20.04739	1345.32568	1279.03601	146.44470	1286.20422	1130.29553	362.60574	1287.38098	1038.91479	376.42688	1222.20605	1012.66858	309.19330	1303.50159	904.34552	369.27707	1318.86377	778.13312	355.05774	1247.19263	780.92871	387.52502	1323.63391	715.36029	401.66663	1286.29065	1162.32324	-105.58871	1304.87451	1067.88892	-122.95535	1234.48267	1044.76343	-63.36537	1356.95972	977.75629	-75.28654	1402.29431	907.05621	9.41670	1368.75610	854.51733	-38.10245	1467.03406	853.26337	7.28605
2871	11.48000	1247.35876	1427.01001	153.92072	1277.36682	1349.33386	318.26654	1277.21387	1360.47205	-20.02412	1345.45898	1279.01294	146.55312	1286.23364	1130.34583	362.69974	1287.41406	1038.96118	376.53177	1222.24268	1012.71356	309.26126	1303.53503	904.39319	369.36749	1318.89099	778.19092	355.14902	1247.21643	780.97241	387.63181	1323.58362	715.32385	401.69714	1286.53906	1162.10242	-105.35733	1304.78577	1067.76477	-122.98849	1234.65222	1044.45654	-63.06974	1356.99463	976.65405	-75.05956	1401.93555	905.52240	9.02640	1368.11035	853.30713	-38.74805	1466.41357	851.47552	6.52896
2872	11.48400	1247.52808	1427.00586	153.90977	1277.44519	1349.37622	318.31354	1277.48901	1360.36780	-20.00181	1345.59619	1278.99451	146.65982	1286.26611	1130.39612	362.78842	1287.45154	1039.00928	376.62323	1222.28918	1012.75757	309.33487	1303.56360	904.44324	369.46295	1318.91907	778.24023	355.23962	1247.23804	781.00500	387.72659	1323.57275	715.31378	401.74878	1286.77490	1161.89612	-105.13198	1304.21692	1068.11267	-123.43960	1234.81799	1044.16443	-62.76559	1356.77832	976.03046	-74.60827	1401.55518	903.98285	8.63046	1367.46094	852.14459	-39.44228	1465.78625	849.70490	5.77552
2873	11.48800	1247.69495	1426.99963	153.90358	1277.51929	1349.41431	318.34943	1277.75830	1360.26306	-19.98163	1345.73511	1278.97437	146.76317	1286.30005	1130.44153	362.86194	1287.49426	1039.04846	376.72354	1222.34326	1012.79736	309.40643	1303.59631	904.49646	369.56189	1318.95264	778.28973	355.32706	1247.27393	781.04797	387.82379	1323.58887	715.33148	401.82846	1287.00110	1161.69617	-104.91745	1304.58484	1067.57263	-123.06201	1235.00354	1043.87842	-62.44122	1356.68469	975.12128	-74.78143	1401.14624	902.45477	8.22653	1366.79492	851.00824	-40.13486	1465.15320	847.95520	4.99734
2874	11.49200	1247.86230	1426.99194	153.88852	1277.58801	1349.45386	318.38428	1278.03040	1360.15161	-19.96269	1345.87341	1278.95166	146.86656	1286.34290	1130.49036	362.92984	1287.53320	1039.09399	376.81406	1222.40100	1012.83691	309.47034	1303.63232	904.54639	369.66006	1318.98975	778.33899	355.40454	1247.30994	781.09119	387.92203	1323.61768	715.37250	401.92084	1287.22424	1161.50635	-104.71580	1305.18848	1066.80786	-122.47838	1235.19580	1043.60510	-62.12159	1356.72156	974.09637	-75.20841	1400.96875	900.97681	7.77218	1366.12366	849.85291	-40.79360	1464.51782	846.22217	4.23280
2875	11.49600	1248.02856	1426.98853	153.87114	1277.66113	1349.49219	318.42114	1278.30347	1360.03577	-19.94430	1346.01245	1278.92542	146.97464	1286.38623	1130.53247	362.99579	1287.57141	1039.14124	376.90207	1222.45154	1012.87720	309.53418	1303.66016	904.59149	369.74945	1319.01746	778.38281	355.49258	1247.34412	781.13483	388.02365	1323.65100	715.41858	402.01633	1287.44019	1161.31873	-104.51024	1305.14929	1066.65979	-122.47140	1235.38428	1043.32654	-61.79293	1356.72974	973.30316	-75.30189	1401.06567	899.59906	7.27002	1365.45862	848.72827	-41.46953	1463.85876	844.50043	3.46821
2876	11.50000	1248.19104	1426.98694	153.84540	1277.73291	1349.53430	318.45139	1278.57288	1359.91785	-19.92719	1346.14868	1278.90210	147.08516	1286.42322	1130.57715	363.06580	1287.61060	1039.18982	376.98395	1222.50732	1012.91620	309.59082	1303.69312	904.63159	369.83139	1319.05798	778.43481	355.58496	1247.38025	781.17944	388.12170	1323.68298	715.46436	402.11441	1287.65491	1161.13708	-104.31043	1305.64294	1065.99731	-121.98980	1235.57812	1043.03723	-61.45247	1356.70569	972.27313	-75.71110	1400.80127	898.14838	6.82684	1364.79529	847.63336	-42.17284	1463.19678	842.79968	2.69622
2877	11.50400	1248.35364	1426.98706	153.82141	1277.79895	1349.57947	318.47668	1278.84778	1359.80249	-19.90728	1346.28687	1278.87964	147.19397	1286.47437	1130.62903	363.13171	1287.65039	1039.23962	377.06140	1222.56946	1012.95056	309.64481	1303.73364	904.67535	369.90591	1319.10547	778.48553	355.68793	1247.42004	781.22437	388.22061	1323.71899	715.51215	402.21164	1287.87280	1160.96362	-104.11865	1305.58521	1065.88464	-122.01021	1235.76892	1042.75891	-61.14713	1356.57910	971.42719	-75.88111	1400.42456	896.69696	6.36660	1364.11450	846.54822	-42.88740	1462.52588	841.12073	1.92960
2878	11.50800	1248.51611	1426.98401	153.80260	1277.86072	1349.62891	318.50668	1279.12085	1359.69690	-19.89666	1346.42578	1278.85632	147.30212	1286.52783	1130.67883	363.19391	1287.68848	1039.29248	377.13428	1222.61829	1012.99359	309.69788	1303.76624	904.72235	369.97888	1319.14490	778.52991	355.78433	1247.46179	781.27582	388.30609	1323.75598	715.56396	402.30194	1288.08130	1160.79956	-103.93673	1306.08386	1065.24902	-121.54420	1235.94958	1042.48755	-60.88169	1356.43091	970.59668	-76.02002	1400.02820	895.25177	5.89891	1363.43652	845.47321	-43.59314	1461.84900	839.46088	1.15968
2879	11.51200	1248.67627	1426.98267	153.78494	1277.91638	1349.67664	318.53040	1279.38489	1359.59717	-19.88361	1346.56628	1278.84290	147.41383	1286.57788	1130.74084	363.25616	1287.73303	1039.34497	377.21008	1222.65576	1013.03912	309.75412	1303.79919	904.76678	370.05627	1319.17285	778.57867	355.87714	1247.50012	781.33148	388.38583	1323.78857	715.61206	402.39209	1288.27124	1160.64453	-103.77588	1305.66101	1065.51672	-121.90756	1236.12073	1042.23242	-60.63551	1356.23718	969.87610	-75.97958	1399.62817	893.84351	5.44950	1362.76025	844.40753	-44.28390	1461.17188	837.81311	0.38619
2880	11.51600	1248.83350	1426.98450	153.76950	1277.96948	1349.72864	318.55698	1279.64197	1359.50415	-19.86098	1346.70508	1278.82715	147.52489	1286.62292	1130.80969	363.32092	1287.77283	1039.40125	377.29156	1222.70679	1013.08014	309.81174	1303.83374	904.81549	370.13943	1319.20667	778.63538	355.97214	1247.54468	781.38184	388.48569	1323.82349	715.66455	402.48654	1288.45642	1160.49561	-103.62819	1305.73010	1065.32068	-121.84187	1236.27051	1041.99768	-60.37164	1356.01379	969.22144	-75.90144	1399.22107	892.44611	5.01061	1362.06958	843.33740	-44.96972	1460.48706	836.18915	-0.40948
2881	11.52000	1248.98718	1426.98950	153.76013	1278.01660	1349.78845	318.58765	1279.89038	1359.41699	-19.83566	1346.83704	1278.81238	147.63118	1286.66162	1130.87549	363.38330	1287.80261	1039.45923	377.37076	1222.75220	1013.13080	309.87402	1303.86292	904.87891	370.22083	1319.23633	778.68964	356.07721	1247.58630	781.44012	388.57584	1323.86060	715.72540	402.58203	1288.64600	1160.35608	-103.47858	1305.91394	1065.00464	-121.67533	1236.42822	1041.76074	-60.09286	1355.88208	968.36469	-76.14308	1398.81177	891.05176	4.54807	1361.36157	842.30005	-45.66596	1459.79810	834.59344	-1.19325
2882	11.52400	1249.14136	1426.99622	153.75029	1278.05774	1349.85413	318.62021	1280.14258	1359.33496	-19.81441	1346.97290	1278.80029	147.73827	1286.70288	1130.95532	363.44809	1287.83191	1039.52319	377.44058	1222.79785	1013.19312	309.93088	1303.89221	904.94537	370.29926	1319.26245	778.73468	356.17267	1247.62585	781.50037	388.66583	1323.90613	715.78925	402.67465	1288.83594	1160.22278	-103.33848	1306.10730	1064.66614	-121.50066	1236.59631	1041.51147	-59.81256	1355.68811	967.66608	-76.14877	1398.41101	889.71814	4.06456	1360.64307	841.31543	-46.42082	1459.08398	833.02094	-1.99607
2883	11.52800	1249.29358	1427.00513	153.73680	1278.09448	1349.92102	318.64697	1280.40564	1359.25037	-19.79557	1347.11011	1278.79321	147.85045	1286.73730	1131.02271	363.50000	1287.86584	1039.59131	377.50641	1223.78284	1013.07501	310.07837	1303.93213	905.02252	370.37491	1319.29309	778.78418	356.26425	1247.67603	781.56433	388.75070	1323.94714	715.85608	402.76791	1289.02869	1160.09717	-103.20547	1306.30200	1064.33118	-121.34218	1236.76062	1041.27466	-59.54914	1355.61609	966.70117	-76.57680	1398.00745	888.37567	3.58075	1360.08569	840.38983	-46.86950	1458.08838	831.15649	-2.68227
